<svg id="Nodriza" xmlns="http://www.w3.org/2000/svg" viewBox="0 0 482.14 391.99"><defs><style>.cls-1{fill:#54a7a7;}.cls-2{fill:#195159;}.cls-3{fill:#3f666c;}.cls-4{fill:#f4f8f3;}</style></defs><title>LTS_Logo</title><path class="cls-1" d="M613.07,232.66A126.65,126.65,0,1,0,739.72,359.31,126.79,126.79,0,0,0,613.07,232.66Z" transform="translate(-370.93 -196.05)"/><path class="cls-2" d="M775.14,359.63A162.06,162.06,0,1,0,674,509.81L747.38,539l-12.24-72.87A161.4,161.4,0,0,0,775.14,359.63ZM613.07,502c-78.65,0-142.65-64-142.65-142.65s64-142.65,142.65-142.65,142.65,64,142.65,142.65S691.73,502,613.07,502Z" transform="translate(-370.93 -196.05)"/><path class="cls-3" d="M820.84,233.22a45.27,45.27,0,0,0-8.38-18.6,44.09,44.09,0,0,0-15.74-12.42,61.25,61.25,0,0,0-18-5.29c-12.07-1.67-23.8-.71-35.16,1.05-19.95,3.39-38.91,9.61-57.25,17,2,1,4,2.1,6,3.2q9.9-3.09,19.94-5.53a209.11,209.11,0,0,1,32.49-5.28c10.82-.78,21.71-.42,31.68,1.95s18.67,7.28,23.22,14.56,5.1,16.67,3.25,26.21-5.93,19.16-10.77,28.37c-9.95,18.45-23.21,35.58-37.54,51.68a532.78,532.78,0,0,1-46.47,45.5c-8.13,7.23-16.62,14.06-25.14,20.86s-17.27,13.31-26.1,19.7q-26.55,19.12-54.73,35.71a538.48,538.48,0,0,1-57.89,29.62c-19.82,8.47-40.26,15.62-60.9,19.2C473,502.4,462.68,503.22,453,502s-18.32-4.75-23.77-11.35-7.33-16.41-6.44-26.58,4-20.63,8.17-30.65a231.39,231.39,0,0,1,23.33-41.33q-.74-3.64-1.31-7.33c-11.47,13.78-22.07,28.41-30.7,44.56-5.29,10.22-9.91,21-12.16,33a61.32,61.32,0,0,0-.69,18.78,44.17,44.17,0,0,0,6.8,18.9,45.36,45.36,0,0,0,15,13.87,64.86,64.86,0,0,0,18.19,7,101.52,101.52,0,0,0,18.45,2.43c3.07.23,6.07.12,9.1.14s6-.28,9-.44a226.64,226.64,0,0,0,34.9-5.75,316.41,316.41,0,0,0,33.41-10,446.57,446.57,0,0,0,63-28.49q15.15-8.24,29.7-17.44c9.7-6.14,19.17-12.6,28.52-19.23,9.23-6.8,18.38-13.71,27.26-21s17.54-14.81,25.94-22.66a449.93,449.93,0,0,0,46.94-50.71c14.24-18.25,27.15-37.85,36.59-59.78a147.18,147.18,0,0,0,6-17.06,101.47,101.47,0,0,0,3.55-18.25A64.75,64.75,0,0,0,820.84,233.22Z" transform="translate(-370.93 -196.05)"/><path class="cls-3" d="M851.48,378.9a67.55,67.55,0,0,0-7.84-18.36,103.87,103.87,0,0,0-11.29-15.19,147.74,147.74,0,0,0-13-13,226.15,226.15,0,0,0-28.68-21.22,312.14,312.14,0,0,0-30.66-17,437,437,0,0,0-64.56-25.09q-16.51-5-33.28-8.91c-11.18-2.59-22.43-4.77-33.71-6.76-11.31-1.77-22.65-3.39-34.05-4.57s-22.84-2-34.31-2.38a435.37,435.37,0,0,0-68.95,2.77c-22.94,2.93-45.89,7.81-68,16.92a145.34,145.34,0,0,0-16.28,8.05,101,101,0,0,0-15.37,10.71,65.8,65.8,0,0,0-13.07,14.83,47.51,47.51,0,0,0-7.2,19.61,46.72,46.72,0,0,0,2.33,20.47,63.44,63.44,0,0,0,9,16.95c7.32,10,16.28,17.83,25.54,24.83,16.21,11.87,33.7,21,51.6,28.91q-1.12-3.38-2.1-6.82-8.65-4.72-17-10a208.66,208.66,0,0,1-26.64-19.8c-8.17-7.31-15.6-15.49-21-24.47s-8-18.87-6.08-27.47,8.15-15.83,16.18-21.43,17.7-9.63,27.61-12.82c20-6.2,41.49-9,63-10.33a515.25,515.25,0,0,1,64.92.68c10.84.65,21.66,1.86,32.47,3.1s21.58,2.87,32.33,4.65c21.49,3.6,42.82,8.19,63.83,13.83,10.47,2.93,21,5.84,31.24,9.33s20.5,7.13,30.52,11.24c20,8.26,39.43,17.93,56.51,30.34,8.4,6.27,16.29,13.22,22.22,21.15s9.55,16.78,8.75,25.54-6.4,17.27-14.19,24-17.39,12.09-27.38,16.38a228.55,228.55,0,0,1-48.24,13.62q-2.06,3.07-4.23,6c18.69-1.65,37.38-4.61,55.73-10.36,10.94-3.6,21.85-8.12,31.89-15.21a61.87,61.87,0,0,0,13.73-13.17,46.14,46.14,0,0,0,8.53-18.68A48.11,48.11,0,0,0,851.48,378.9Z" transform="translate(-370.93 -196.05)"/><path class="cls-4" d="M549.45,424.25H508.77l25-130.39h17.07l-22.1,114.59h23.61Z" transform="translate(-370.93 -196.05)"/><polygon class="cls-4" points="194.97 228.2 230.82 228.2 233.77 212.4 211.98 212.4 194.97 228.2"/><polygon class="cls-4" points="252.92 113.6 255.87 97.8 213.37 97.8 189.77 220.66 210.48 201.42 216.8 168.99 239.32 168.99 242.27 153.19 219.75 153.19 227.49 113.6 252.92 113.6"/><path class="cls-4" d="M662.4,424.25H645.88l-.11-49.58h-.36l-21.13,49.58H608.65l28.7-65.92-2.74-64.47h16.71l.32,48.13H652l20-48.13h15.8l-27.58,64.47Z" transform="translate(-370.93 -196.05)"/><path class="cls-4" d="M673.12,424.25l25-130.39h17.07l-25,130.39Z" transform="translate(-370.93 -196.05)"/><path class="cls-2" d="M402.89,560.78,401.09,588H396l1.8-27.26h-4.9l.22-3.76H408l-.22,3.76Z" transform="translate(-370.93 -196.05)"/><path class="cls-2" d="M413.67,557h10q5.88,0,5.55,5.31l-.49,7.65q-.27,4.06-3.43,5.14L428.09,588h-4.84l-2.56-12.53h-3.1L416.77,588h-5.12ZM417.8,572h3.38a2.17,2.17,0,0,0,2.45-2.25l.44-6.7q.16-2.25-2.12-2.25h-3.38Z" transform="translate(-370.93 -196.05)"/><path class="cls-2" d="M439.36,588h-5.12l1.69-25.7q.33-5.31,6.48-5.31h3.81q6.15,0,5.83,5.31L450.36,588h-5.12l.71-11.36h-5.88Zm6.86-15.12.71-10.32q.11-1.81-2.12-1.81h-1.42q-2.23,0-2.34,1.81l-.71,10.32Z" transform="translate(-370.93 -196.05)"/><path class="cls-2" d="M469.25,572l1-15h5.12l-2,31h-5.12l.38-6.18L464,567.74,462.72,588H457.6l2-31h5.12Z" transform="translate(-370.93 -196.05)"/><path class="cls-2" d="M492.12,565.36l.16-2.72q.16-1.86-2.07-1.86h-.82q-2.18,0-2.34,1.86l-.33,5.14a1.27,1.27,0,0,0,.35,1.17,10.41,10.41,0,0,0,1.33.78l4.68,2.12a19.9,19.9,0,0,1,2.2,1.14,3.15,3.15,0,0,1,1,1,4.22,4.22,0,0,1,.25,2.22l-.44,6.61q-.33,5.23-6.53,5.23h-3.1q-6.15,0-5.77-5.7l.11-1.56h5.12l-.16,1.68q-.11,1.81,2.18,1.81h.93q2,0,2.12-1.81l.38-5.27A1.28,1.28,0,0,0,491,576a10.55,10.55,0,0,0-1.33-.78l-4.68-2.2a14.14,14.14,0,0,1-2.26-1.17,2.5,2.5,0,0,1-1-1.23,5.17,5.17,0,0,1-.22-2l.44-6.35q.33-5.31,6.48-5.31h3.16q6.15,0,5.83,5.31l-.22,3Z" transform="translate(-370.93 -196.05)"/><path class="cls-2" d="M515,588h-12.2l2-31h5.12l-1.8,27.26h7.08Z" transform="translate(-370.93 -196.05)"/><path class="cls-2" d="M525.44,588h-5.12l1.69-25.7q.33-5.31,6.48-5.31h3.81q6.15,0,5.83,5.31L536.43,588h-5.12l.71-11.36h-5.88Zm6.86-15.12L533,562.6q.11-1.81-2.12-1.81h-1.42q-2.23,0-2.34,1.81l-.71,10.32Z" transform="translate(-370.93 -196.05)"/><path class="cls-2" d="M553.64,560.78,551.84,588h-5.12l1.8-27.26h-4.9l.22-3.76h14.92l-.22,3.76Z" transform="translate(-370.93 -196.05)"/><path class="cls-2" d="M562.4,588l2-31h5.12l-2,31Z" transform="translate(-370.93 -196.05)"/><path class="cls-2" d="M581,588q-6.21,0-5.88-5.27l1.36-20.43q.33-5.31,6.48-5.31h4.9q6.15,0,5.83,5.31l-1.36,20.43Q592,588,585.76,588Zm1.42-3.76H585q2.07,0,2.18-1.81l1.36-19.87q.11-1.81-2.18-1.81h-2.45q-2.23,0-2.34,1.81l-1.36,19.87Q580.09,584.28,582.38,584.28Z" transform="translate(-370.93 -196.05)"/><path class="cls-2" d="M610.86,572l1-15H617l-2,31h-5.12l.38-6.18-4.57-14.13L604.32,588h-5.12l2-31h5.12Z" transform="translate(-370.93 -196.05)"/><path class="cls-2" d="M645,565.36l.16-2.72q.16-1.86-2.07-1.86h-.82q-2.18,0-2.34,1.86l-.33,5.14a1.27,1.27,0,0,0,.35,1.17,10.41,10.41,0,0,0,1.33.78l4.68,2.12a19.9,19.9,0,0,1,2.2,1.14,3.15,3.15,0,0,1,1,1,4.22,4.22,0,0,1,.25,2.22l-.44,6.61q-.33,5.23-6.53,5.23h-3.1q-6.15,0-5.77-5.7l.11-1.56h5.12l-.16,1.68q-.11,1.81,2.18,1.81h.93q2,0,2.12-1.81l.38-5.27a1.28,1.28,0,0,0-.35-1.17,10.55,10.55,0,0,0-1.33-.78l-4.68-2.2a14.14,14.14,0,0,1-2.26-1.17,2.5,2.5,0,0,1-1-1.23,5.17,5.17,0,0,1-.22-2l.44-6.35q.33-5.31,6.48-5.31h3.16q6.15,0,5.83,5.31l-.22,3Z" transform="translate(-370.93 -196.05)"/><path class="cls-2" d="M661.6,588q-6.21,0-5.88-5.27l1.36-20.43q.33-5.31,6.48-5.31h4.9q6.15,0,5.83,5.31l-1.36,20.43q-.33,5.27-6.53,5.27Zm1.42-3.76h2.61q2.07,0,2.18-1.81l1.36-19.87q.11-1.81-2.18-1.81h-2.45q-2.23,0-2.34,1.81l-1.36,19.87Q660.73,584.28,663,584.28Z" transform="translate(-370.93 -196.05)"/><path class="cls-2" d="M692,588h-12.2l2-31H687l-1.8,27.26h7.08Z" transform="translate(-370.93 -196.05)"/><path class="cls-2" d="M716.31,557l-1.63,25.14q-.38,5.88-6.59,5.88h-4.3q-6.15,0-5.77-5.92l1.63-25.1h5.12l-1.63,25.23q-.16,2,2.07,2h2.12a2,2,0,0,0,2.23-2L711.19,557Z" transform="translate(-370.93 -196.05)"/><path class="cls-2" d="M731.77,560.78,730,588h-5.12l1.8-27.26h-4.9L722,557h14.92l-.22,3.76Z" transform="translate(-370.93 -196.05)"/><path class="cls-2" d="M740.54,588l2-31h5.12l-2,31Z" transform="translate(-370.93 -196.05)"/><path class="cls-2" d="M759.1,588q-6.21,0-5.88-5.27l1.36-20.43q.33-5.31,6.48-5.31H766q6.15,0,5.83,5.31l-1.36,20.43q-.33,5.27-6.53,5.27Zm1.42-3.76h2.61q2.07,0,2.18-1.81l1.36-19.87q.11-1.81-2.18-1.81H762q-2.23,0-2.34,1.81l-1.36,19.87Q758.23,584.28,760.52,584.28Z" transform="translate(-370.93 -196.05)"/><path class="cls-2" d="M789,572l1-15h5.12l-2,31H788l.38-6.18-4.57-14.13L782.46,588h-5.12l2-31h5.12Z" transform="translate(-370.93 -196.05)"/><path class="cls-2" d="M811.86,565.36l.16-2.72q.16-1.86-2.07-1.86h-.82q-2.18,0-2.34,1.86l-.33,5.14a1.27,1.27,0,0,0,.35,1.17,10.41,10.41,0,0,0,1.33.78l4.68,2.12A19.9,19.9,0,0,1,815,573a3.15,3.15,0,0,1,1,1,4.22,4.22,0,0,1,.25,2.22l-.44,6.61q-.33,5.23-6.53,5.23h-3.1q-6.15,0-5.77-5.7l.11-1.56h5.12l-.16,1.68q-.11,1.81,2.18,1.81h.93q2,0,2.12-1.81l.38-5.27a1.28,1.28,0,0,0-.35-1.17,10.55,10.55,0,0,0-1.33-.78l-4.68-2.2a14.14,14.14,0,0,1-2.26-1.17,2.5,2.5,0,0,1-1-1.23,5.17,5.17,0,0,1-.22-2l.44-6.35q.33-5.31,6.48-5.31h3.16q6.15,0,5.83,5.31l-.22,3Z" transform="translate(-370.93 -196.05)"/></svg>